<svg xmlns="http://www.w3.org/2000/svg" viewBox="0 0 512 512" role="img" aria-labelledby="title desc">
  <title id="title">D-Bus icon concept friendly</title>
  <desc id="desc">A softer D shaped bus with bright windows and a signal pulse.</desc>
  <rect width="512" height="512" rx="124" fill="#fff3da"/>
  <path d="M116 106h116c99 0 180 80 180 178s-81 178-180 178H116z" fill="#cd4c3b"/>
  <path d="M154 144h78c79 0 142 63 142 140s-63 140-142 140h-78z" fill="#fffaf2"/>
  <rect x="155" y="193" width="180" height="94" rx="34" fill="#f2bd2d"/>
  <circle cx="193" cy="242" r="18" fill="#fffaf2"/>
  <circle cx="245" cy="242" r="18" fill="#fffaf2"/>
  <circle cx="297" cy="242" r="18" fill="#fffaf2"/>
  <rect x="155" y="287" width="190" height="25" rx="12" fill="#2f5d50"/>
  <circle cx="201" cy="319" r="24" fill="#2f5d50"/>
  <circle cx="289" cy="319" r="24" fill="#2f5d50"/>
  <circle cx="201" cy="319" r="8" fill="#fff3da"/>
  <circle cx="289" cy="319" r="8" fill="#fff3da"/>
  <path d="M338 170c26 8 47 28 58 54" fill="none" stroke="#2f5d50" stroke-linecap="round" stroke-width="13"/>
  <path d="M329 144c39 11 71 39 87 77" fill="none" stroke="#2f5d50" stroke-linecap="round" stroke-width="9" opacity=".7"/>
</svg>
