<svg xmlns="http://www.w3.org/2000/svg" viewBox="0 0 512 512" role="img" aria-labelledby="title desc">
  <title id="title">D-Bus icon concept structure</title>
  <desc id="desc">A D shaped bus with message nodes and a signal arc.</desc>
  <rect width="512" height="512" rx="124" fill="#f4efe2"/>
  <path d="M120 112h112c95 0 172 77 172 172s-77 172-172 172H120z" fill="#163a2d"/>
  <path d="M162 154h70c71 0 130 59 130 130s-59 130-130 130h-70z" fill="#fbf7ed"/>
  <path d="M152 228h148c28 0 51 23 51 51v17H152z" fill="#f6a100"/>
  <circle cx="194" cy="313" r="24" fill="#234d3c"/>
  <circle cx="270" cy="313" r="24" fill="#234d3c"/>
  <circle cx="340" cy="211" r="19" fill="#28b777"/>
  <circle cx="325" cy="278" r="9" fill="#28b777"/>
  <circle cx="351" cy="252" r="9" fill="#28b777"/>
  <path d="M126 250h66" stroke="#28b777" stroke-linecap="round" stroke-width="16"/>
  <path d="M333 171c28 7 51 29 59 57" fill="none" stroke="#28b777" stroke-linecap="round" stroke-width="14"/>
  <path d="M322 146c41 10 76 42 91 84" fill="none" stroke="#28b777" stroke-linecap="round" stroke-width="10" opacity=".7"/>
</svg>
